<svg version="1.2" xmlns="http://www.w3.org/2000/svg" viewBox="0 0 549 475" width="549" height="475">
	<style>
		.s0 { fill: #020202 } 
	</style>
	<path id="Path 0" fill-rule="evenodd" class="s0" d="m274.5 0.08c0.55-0.02 15.86 11.1 34.03 24.7 18.16 13.59 40.89 30.54 50.5 37.64 9.61 7.11 18.71 13.97 22.97 17.58l-4.25 2.14c-2.34 1.18-6.05 2.78-8.25 3.55-2.2 0.78-7.38 2.07-11.5 2.87-4.13 0.79-12.9 2.31-19.5 3.36-6.6 1.05-14.25 2.21-22 3.24l-14-10.34c-7.7-5.69-17.15-12.7-21-15.58-4.22-3.16-7.4-4.89-8-4.37-0.55 0.47-8.48 6.44-17.62 13.25-9.14 6.81-25.56 18.99-36.5 27.07-10.93 8.08-25.28 18.69-31.88 23.56-6.6 4.88-13.28 9.75-14.85 10.81-2.52 1.72-2.77 2.34-2.15 5.44 0.38 1.93 1.9 6.2 3.38 9.5 1.48 3.3 4.93 8.4 7.66 11.33 2.94 3.17 7.4 6.53 10.96 8.29 3.3 1.62 7.8 3.44 10 4.04 2.45 0.67 22.6 1.38 100 2.53l10.5 2.77c5.77 1.53 13.65 4.15 17.5 5.83 3.85 1.67 10.6 5.39 15 8.26 4.4 2.86 11.42 8.53 15.59 12.58 4.17 4.05 9.63 10.52 12.12 14.37 2.5 3.85 5.88 9.7 7.53 13 1.65 3.3 4.16 9.38 5.58 13.5 1.42 4.13 3.38 11.77 4.36 17 1.17 6.23 1.76 13.97 1.71 22.5-0.05 9.26-0.71 16.16-2.3 24-1.23 6.05-3.89 15.05-5.92 20-2.03 4.95-5.92 12.6-8.65 17-2.72 4.4-8.57 11.64-12.99 16.09-4.42 4.45-10.73 9.9-14.03 12.11-3.3 2.22-8.93 5.5-12.5 7.3-3.57 1.8-8.3 3.93-10.5 4.74-2.2 0.8-6.25 2.1-9 2.88-2.75 0.78-8.6 2.08-13 2.88-4.4 0.81-9.8 1.47-16 1.47l-1.86 7.77c-1.02 4.27-2.99 10.69-4.39 14.26-1.39 3.57-4.33 9.65-6.53 13.5-2.53 4.44-7.34 10.3-13.11 16-6.74 6.67-11.19 10.09-17.11 13.18-4.4 2.29-10.25 4.95-13 5.9-2.75 0.95-7.7 2.4-11 3.24-5.04 1.27-18.49 1.57-84 1.87-62.29 0.28-78.14 0.09-78.72-0.92-0.39-0.7-0.75-56.84-0.78-124.77-0.04-67.93-0.17-123.58-0.29-123.68-0.11-0.1-6.29 4.29-13.71 9.77-7.42 5.47-13.73 9.92-14 9.89-0.28-0.04-6.65-8.71-14.17-19.27-7.52-10.57-13.96-19.89-14.32-20.71-0.47-1.1 4.4-5.28 18.17-15.57 10.35-7.74 29.39-21.87 42.32-31.4 12.93-9.53 33.22-24.57 45.1-33.43 11.89-8.85 31.69-23.57 44-32.7 12.32-9.13 32.3-23.94 44.4-32.91 12.1-8.98 30.53-22.66 40.95-30.4 10.42-7.75 23.25-17.33 28.5-21.29 5.25-3.96 10-7.21 10.55-7.22zm-173.54 192.42l0.04 236.5c91.44-0.03 105.01-0.35 110-1.39 3.57-0.75 8.41-2.32 10.75-3.49 2.34-1.16 6.16-3.86 8.5-6 2.39-2.17 5.67-6.77 7.5-10.5 1.79-3.64 2.99-6.96 2.67-7.37-0.32-0.41-12.81-0.75-27.75-0.75h-27.17v-167c8.53 0.78 18.99 1 28.75 1h17.75v125.5c35.26-0.04 49.77-0.46 55-0.96 5.23-0.5 12.43-1.91 16-3.14 3.57-1.22 8.75-3.58 11.5-5.23 2.75-1.66 6.8-4.43 9-6.17 2.2-1.74 5.65-5.37 7.67-8.08 2.01-2.71 5.01-7.62 6.65-10.92 1.65-3.3 3.81-8.92 4.8-12.5 1.39-5 1.82-10.2 1.85-22.5 0.03-14.08-0.25-16.9-2.33-23.5-1.29-4.12-3.5-9.75-4.89-12.5-1.4-2.75-4.28-7.36-6.4-10.25-2.12-2.89-5.99-6.83-8.6-8.76-2.61-1.93-7.9-5.06-11.75-6.96-3.85-1.9-10.49-4.15-14.75-4.99-6.14-1.22-15.5-1.54-45-1.53-20.49 0-41.07-0.47-45.75-1.05-4.68-0.58-11.43-1.76-15-2.61-3.57-0.86-11.45-3.96-17.5-6.89-8.05-3.9-12.85-7.02-17.9-11.64-3.79-3.48-8.81-9.02-11.15-12.32-2.33-3.3-5.53-8.59-7.1-11.76-1.57-3.17-3.07-5.73-3.35-5.69-0.28 0.05-7.6 5.34-16.27 11.77zm326.79-78.92c0.69 0.23 17.56 12.56 37.5 27.41 19.94 14.85 46.82 34.82 59.75 44.39 12.92 9.57 23.46 18.01 23.42 18.76-0.04 0.74-6.34 10.24-14 21.09-7.66 10.85-14.15 19.75-14.42 19.76-0.28 0.02-6.8-4.64-28.5-20.75l-0.5 250.76h-119c-65.45 0-119-0.23-119-0.5 0-0.28 4.35-3.54 9.66-7.25 6.12-4.28 11.83-9.32 15.56-13.75 3.23-3.85 7.87-10.38 10.31-14.5 2.43-4.13 4.43-8.07 4.45-8.75 0.01-0.99 16.1-1.25 154.02-1.25l0.01-116.25c0.01-63.94 0.26-117.15 0.57-118.25 0.43-1.55-0.54-2.79-4.26-5.46-2.65-1.9-11.12-8.14-18.82-13.87-7.7-5.73-14.34-10.7-14.76-11.05-0.42-0.34-0.1-5.12 0.71-10.62 0.8-5.5 2.11-12.7 2.91-16 0.79-3.3 2.2-8.03 3.12-10.5 0.92-2.48 2.98-6.38 4.59-8.67 1.6-2.29 3.47-4.39 4.17-4.67 0.69-0.28 1.82-0.32 2.51-0.08zm-23.85-74.58c0.46 0.82 1.41 4.65 2.1 8.5 0.7 3.85 2.37 10.82 3.72 15.5 1.34 4.67 3.51 10.3 4.8 12.5 1.3 2.2 3.63 5.21 5.17 6.69 1.54 1.48 5.28 3.83 8.31 5.22 3.02 1.39 10 3.63 15.5 4.98 5.5 1.35 12.14 2.71 14.75 3.03 2.61 0.32 4.75 1.03 4.75 1.58 0 0.55-2.14 1.25-4.75 1.55-2.61 0.31-9.48 1.68-15.25 3.05-5.78 1.38-12.3 3.29-14.5 4.26-2.2 0.97-5.99 3.53-8.42 5.7-2.69 2.4-5.48 6.28-7.14 9.94-1.5 3.3-3.9 11.17-5.32 17.5-1.43 6.32-2.6 12.73-2.61 14.25-0.01 1.51-0.35 2.94-0.76 3.18-0.41 0.24-1.6-3.92-2.64-9.25-1.03-5.32-3.28-13.95-5-19.16-2.5-7.6-4.02-10.47-7.7-14.5q-4.6-5.03-11-7.91c-3.53-1.59-12.04-3.99-18.91-5.33-6.88-1.35-13.18-2.69-14-2.99-0.83-0.3 3.67-1.61 10-2.92 6.32-1.3 14.2-3.26 17.5-4.35 3.3-1.1 8.02-3.26 10.5-4.8 2.47-1.54 5.68-4.36 7.13-6.27 1.45-1.9 3.42-5.03 4.39-6.95 0.97-1.93 2.35-5.53 3.08-8 0.73-2.48 2.24-9.23 3.36-15 1.12-5.78 2.05-10.73 2.07-11 0.01-0.28 0.41 0.17 0.87 1zm-65.82 63.08c6.83 0.95 16.02 2.41 20.42 3.24 4.4 0.84 10.7 2.52 14 3.73 3.3 1.21 7.46 3.27 9.25 4.57 1.79 1.31 4.37 4.18 5.75 6.38 1.37 2.2 3.58 7.71 4.9 12.25 1.32 4.53 2.91 11.17 3.53 14.75 0.62 3.57 0.89 6.61 0.6 6.75-0.29 0.13-9.19-6.14-19.78-13.95-10.59-7.81-26.54-19.62-35.44-26.25-8.91-6.63-16.07-12.31-15.91-12.62 0.15-0.31 5.86 0.2 12.68 1.15z"/>
</svg>